<svg fill="none" height="95" viewBox="0 0 95 95" width="95" xmlns="http://www.w3.org/2000/svg" xmlns:xlink="http://www.w3.org/1999/xlink"><mask id="a" height="87" maskUnits="userSpaceOnUse" width="87" x="4" y="4"><circle cx="47.5" cy="47.5" fill="#8f8f8f" r="43.5"/></mask><circle cx="47.5" cy="47.5" fill="#202233" r="47.5"/><g mask="url(#a)"><path d="m68.8635 67.0785c-1.2644-.6603-2.5337-1.3206-3.8617-1.8397-1.0441-.4074-2.1519-.7408-3.0084-1.4685-1.3329-1.1351-1.0115-2.9633-1.3656-4.5205-.0946-.4255-.1974-.869-.4666-1.2106-.6314-.8-1.917-.7589-2.6169-1.4981-.4225-.4501-.5498-1.1055-.5628-1.7248-.0098-.3926.0244-.7999.2104-1.1449.2219-.409.7277-.6127 1.0784-.9018.372-.3088.757-.5798 1.1551-.8542.8451-.5798 1.6299-1.2073 2.0247-2.1929.5743-1.434.9626-3.0963 1.1306-4.6289.1762-1.6229-.1811-3.5497.509-5.0807.6657-1.4767 2.0475-2.1354 2.3559-3.8552.2627-1.4669-.0033-3.3625-.589-4.7176-.2741-.6325-.7113-1.0316-1.0833-1.577-.3948-.5749-.1387-1.2648-.0555-1.9333.248-2.0008-.1778-4.0196-.602-5.9907-.1501-.6998-.3018-1.4028-.5579-2.0714-.5368-1.3978-1.5532-2.592-2.816-3.3805-.6379-.3992-1.3671-.5782-2.0051-.9544-.7048-.4156-1.4259-.7572-2.1829-1.0808-1.6755-.7162-3.3935-1.347-5.162-1.7971-3.4538-.8771-7.1899-1.0315-10.479.5306-1.7032.8115-3.3151 2.2553-3.4962 4.1427-2.4048-.6866-5.2028.4386-6.477 2.6052-1.0164 1.7248-1.2204 3.7272-1.1306 5.695.0832 1.802.7227 3.4348.9821 5.222.0734.4944.1338 1.0414-.1403 1.457-.23.3498-.6558.5355-.8712.8952-.1583.2645-.1811.5864-.199.8952-.1306 2.2291-.2187 4.629.9772 6.5098.1681.2644.3638.5174.6102.7112.1941.1528.416.2645.6248.3959 1.0181.639 1.6919 1.7264 2.0671 2.8713.3492 1.0628.2921 2.1732.5645 3.2344.2219.864.5009 1.8101.8092 2.6577.2594.7113.7342 1.14 1.2546 1.6459.5401.5257.8647 1.1269 1.6462 1.347.0457.1577.1289.3006.1925.4517.1648.3992.1811.8427.1958 1.2747.0261.7868.1012 2.0303-.4323 2.6676-.6689.8-2.0492.547-2.6773 1.4603-.31.4501-.31 1.0349-.4079 1.5737-.4111 2.2257-2.532 3.6466-4.4751 4.7882-6.3693 3.7452-10.949 7.2064-15.5302 12.3766v14.9362h67c0-5.7447 0-9.766 0-14.9362-1.7179-2.2979-6.7558-8.178-12.1365-10.9853z" fill="#4657d5"/></g></svg>