<svg width="95" height="95" viewBox="0 0 95 95" fill="none" xmlns="http://www.w3.org/2000/svg">
<circle cx="47.5" cy="47.5" r="47.5" fill="#4657D5"/>
<mask id="mask0_176_418" style="mask-type:alpha" maskUnits="userSpaceOnUse" x="4" y="4" width="87" height="87">
<circle cx="47.5" cy="47.5" r="43.5" fill="#8F8F8F"/>
</mask>
<g mask="url(#mask0_176_418)">
<path d="M68.8635 67.0785C67.5991 66.4182 66.3298 65.7579 65.0018 65.2388C63.9577 64.8314 62.8499 64.498 61.9934 63.7703C60.6605 62.6352 60.9819 60.807 60.6278 59.2498C60.5332 58.8243 60.4304 58.3808 60.1612 58.0392C59.5298 57.2392 58.2442 57.2803 57.5443 56.5411C57.1218 56.091 56.9945 55.4356 56.9815 54.8163C56.9717 54.4237 57.0059 54.0164 57.1919 53.6714C57.4138 53.2624 57.9196 53.0587 58.2703 52.7696C58.6423 52.4608 59.0273 52.1898 59.4254 51.9154C60.2705 51.3356 61.0553 50.7081 61.4501 49.7225C62.0244 48.2885 62.4127 46.6262 62.5807 45.0936C62.7569 43.4707 62.3996 41.5439 63.0897 40.0129C63.7554 38.5362 65.1372 37.8775 65.4456 36.1577C65.7083 34.6908 65.4423 32.7952 64.8566 31.4401C64.5825 30.8076 64.1453 30.4085 63.7733 29.8631C63.3785 29.2882 63.6346 28.5983 63.7178 27.9298C63.9658 25.929 63.54 23.9102 63.1158 21.9391C62.9657 21.2393 62.814 20.5363 62.5579 19.8677C62.0211 18.4699 61.0047 17.2757 59.7419 16.4872C59.104 16.088 58.3748 15.909 57.7368 15.5328C57.032 15.1172 56.3109 14.7756 55.5539 14.452C53.8784 13.7358 52.1604 13.105 50.3919 12.6549C46.9381 11.7778 43.202 11.6234 39.9129 13.1855C38.2097 13.997 36.5978 15.4408 36.4167 17.3282C34.0119 16.6416 31.2139 17.7668 29.9397 19.9334C28.9233 21.6582 28.7193 23.6606 28.8091 25.6284C28.8923 27.4304 29.5318 29.0632 29.7912 30.8504C29.8646 31.3448 29.925 31.8918 29.6509 32.3074C29.4209 32.6572 28.9951 32.8429 28.7797 33.2026C28.6214 33.4671 28.5986 33.789 28.5807 34.0978C28.4501 36.3269 28.362 38.7268 29.5579 40.6076C29.726 40.872 29.9217 41.125 30.1681 41.3188C30.3622 41.4716 30.5841 41.5833 30.7929 41.7147C31.811 42.3537 32.4848 43.4411 32.86 44.586C33.2092 45.6488 33.1521 46.7592 33.4245 47.8204C33.6464 48.6844 33.9254 49.6305 34.2337 50.4781C34.4931 51.1894 34.9679 51.6181 35.4883 52.124C36.0284 52.6497 36.353 53.2509 37.1345 53.471C37.1802 53.6287 37.2634 53.7716 37.327 53.9227C37.4918 54.3219 37.5081 54.7654 37.5228 55.1974C37.5489 55.9842 37.624 57.2277 37.0905 57.865C36.4216 58.665 35.0413 58.412 34.4132 59.3253C34.1032 59.7754 34.1032 60.3602 34.0053 60.899C33.5942 63.1247 31.4733 64.5456 29.5302 65.6872C23.1609 69.4324 18.5812 72.8936 14 78.0638C14 83.8085 14 88.4042 14 93H81C81 87.2553 81 83.234 81 78.0638C79.2821 75.7659 74.2442 69.8858 68.8635 67.0785Z" fill="#202233"/>
</g>
</svg>
